PathFileType	4	(X/Y/Z)	C:\Users\WrightLab\Desktop\Jo\P5V111.trc
DataRate	CameraRate	NumFrames	NumMarkers	Units	OrigDataRate	OrigDataStartFrame	OrigNumFrames
100.00	100.00	      27	19	mm	100.00	146	      1166
Frame#	Time	Headset_Front			Headset_Back			Headset_Left			Headset_Right			Left_Shoulder			Right_Shoulder			Sternum			C7			Left Elbow			Right Elbow			Left Wrist			Right Wrist			Left ASIS			Right ASIS			S2			Left Knee			Right Knee			Left Ankle			Right Ankle			
		X1	Y1	Z1	X2	Y2	Z2	X3	Y3	Z3	X4	Y4	Z4	X5	Y5	Z5	X6	Y6	Z6	X7	Y7	Z7	X8	Y8	Z8	X9	Y9	Z9	X10	Y10	Z10	X11	Y11	Z11	X12	Y12	Z12	X13	Y13	Z13	X14	Y14	Z14	X15	Y15	Z15	X16	Y16	Z16	X17	Y17	Z17	X18	Y18	Z18	X19	Y19	Z19	

146	1.450													-1090.80042	1280.36670	1464.08057													-347.88876	1403.55481	1539.80933	-977.20801	1217.41602	1287.49707	-181.46584	1412.45410	1333.61926	-902.16840	958.92938	1414.63647	-626.20941	980.52368	1459.36414							-678.10822	543.75677	1401.36011							
147	1.460													-1090.31921	1279.46082	1456.65234													-347.77155	1400.15430	1537.68054	-975.52966	1217.04553	1280.68701	-181.62451	1405.87634	1330.71301	-901.74957	958.03839	1408.30762	-626.64142	978.21973	1452.88989							-678.68896	541.93750	1398.00891							
148	1.470													-1089.85339	1279.14014	1449.18738													-348.46490	1395.59204	1536.38916	-974.08533	1216.86743	1273.84668	-181.76640	1399.77539	1328.53625	-902.12292	957.41187	1401.06018	-626.78430	975.70679	1447.97559							-680.32782	539.13739	1393.87146							
149	1.480													-1089.30042	1278.98706	1441.81238													-349.00784	1390.92725	1534.82068	-972.67090	1217.09839	1267.07166	-181.38321	1392.61047	1326.91272	-902.55029	957.13263	1393.74463	-627.34845	973.60840	1440.49988							-681.81628	537.53687	1389.66992							
150	1.490													-1088.55188	1278.93542	1434.46643													-349.74554	1386.75903	1531.71240	-971.26483	1217.39941	1260.27246	-181.66751	1385.80969	1324.86340	-902.75323	956.70569	1386.29968	-626.49811	972.41217	1433.33740							-683.27203	535.90387	1386.15845							
151	1.500													-1087.90930	1279.27173	1427.18286													-350.77591	1381.56335	1528.77649	-969.17743	1217.36450	1253.45789	-181.95924	1378.80371	1323.63818	-903.04663	957.20868	1379.16443	-626.85370	970.22150	1426.88428							-684.46136	536.79834	1381.00073							
152	1.510													-1086.99719	1279.98901	1419.88452													-351.35727	1377.69849	1527.53809	-967.53259	1217.81079	1246.69080	-183.77434	1372.35840	1323.28552	-903.36078	957.69568	1371.53601	-626.39105	969.50531	1420.05981							-684.82758	538.59387	1375.17712	-879.26154	141.63445	1750.31970				
153	1.520													-1085.85376	1280.28491	1412.70190													-352.28494	1373.56812	1524.14246	-966.01276	1218.48621	1240.07178	-184.65500	1364.99438	1322.12537	-903.00629	957.45520	1363.85425	-626.93195	967.97058	1414.25513							-684.59491	540.12231	1368.30896	-879.71277	143.69016	1748.40698				
154	1.530													-1084.99316	1281.18823	1405.44910													-353.61411	1368.67627	1520.27026	-964.25720	1219.12000	1233.48352	-184.20334	1357.27698	1320.05249	-903.21271	958.40533	1356.20190	-626.95428	967.94641	1408.54163							-685.11920	541.96277	1361.76099	-880.42444	145.84773	1746.25415				
155	1.540													-1084.01038	1281.78967	1398.30774													-354.58582	1364.61060	1519.59680	-962.28528	1219.58362	1226.87769	-184.75604	1349.82739	1318.43298	-903.06769	959.17572	1348.89148	-627.45898	967.85101	1402.01941							-684.33417	542.26587	1355.64136	-881.36407	149.02426	1743.69617				
156	1.550													-1083.65002	1283.07898	1391.21436													-356.10742	1359.75647	1514.80603	-960.60718	1220.17371	1220.34973	-185.46890	1342.00256	1316.70667	-903.32098	960.24365	1341.39539	-627.74731	967.17450	1396.09717							-684.37006	543.20557	1350.64868	-882.28058	152.54903	1741.47375				
157	1.560													-1082.81763	1283.95984	1384.11292													-357.26740	1355.80591	1513.27478	-958.90326	1220.94592	1213.80530	-186.24583	1334.27100	1315.79895	-903.53442	961.69531	1334.25073	-628.03339	967.73883	1391.24097							-682.90118	543.26019	1346.23608	-883.60248	156.16089	1738.11145				
158	1.570													-1081.70728	1284.82361	1377.00378													-358.66516	1351.74744	1511.36597	-956.84283	1221.75977	1207.39380	-187.19098	1325.76233	1313.52612	-903.56335	962.80658	1327.29236	-628.04291	968.10468	1385.27393							-681.73279	543.13202	1341.82642	-885.43854	160.52818	1735.07861				
159	1.580													-1080.65735	1285.91980	1369.83948													-360.60501	1346.31396	1507.78284	-955.15106	1222.83179	1200.95178	-188.30783	1317.84741	1312.27832	-903.29938	963.29828	1319.97852	-628.35699	968.16040	1380.89697							-680.64398	543.54236	1338.63818	-887.42206	164.91383	1730.28735	-733.40619	123.74767	1390.82080	
160	1.590													-1079.80212	1286.96411	1362.72888													-361.47549	1343.08044	1505.40552	-953.33105	1223.76758	1194.57861	-189.80763	1309.90466	1311.35608	-903.12201	964.70654	1313.47827	-628.39838	968.32935	1376.02808							-678.86548	544.08331	1336.78918	-889.73969	169.72151	1725.86377	-734.84821	121.90627	1387.68799	
161	1.600													-1079.36646	1288.54932	1355.52454													-363.06219	1338.49341	1504.11755	-951.18451	1224.62598	1188.19934	-189.67979	1303.15466	1311.08252	-903.04211	965.83148	1306.90051	-627.99316	969.41119	1370.19995							-675.91052	543.94318	1334.54797	-892.02618	174.61230	1719.49805	-736.24231	120.95110	1385.64587	
162	1.610													-1078.96619	1289.94031	1348.38123													-364.59152	1334.30737	1502.29761	-949.37805	1225.87659	1182.03870	-190.63396	1294.74182	1310.88782	-902.95947	966.80847	1300.42395	-628.06519	969.76758	1366.03735							-673.95844	543.20953	1333.04407	-894.98309	179.80765	1713.53455	-736.82550	120.11502	1384.42004	
163	1.620													-1078.25928	1291.07117	1341.22681													-366.70432	1329.69141	1499.23828	-947.56067	1226.84204	1175.79468	-193.74583	1285.87769	1308.27869	-903.10156	967.68909	1293.84229	-627.25629	968.90723	1360.55969							-670.98981	541.86334	1333.31958	-898.54907	184.38304	1706.41870	-737.15234	120.28641	1385.02954	
164	1.630													-1077.06714	1291.89209	1334.03223													-368.43112	1324.55688	1497.67810	-945.36542	1227.89526	1169.65930	-196.60126	1277.55505	1307.93530	-902.71729	967.93530	1287.79492	-627.05585	969.25842	1357.01819							-668.84821	541.93250	1332.42810	-901.88208	190.16801	1698.41614	-737.47748	120.66387	1385.14624	
165	1.640													-1076.17407	1292.52087	1326.93726													-370.92404	1320.45886	1493.79749	-943.54370	1228.97180	1163.51501	-200.40952	1268.07556	1305.69263	-903.23047	968.95917	1281.28882	-627.31677	969.53558	1353.12280							-666.38806	539.84814	1332.44031	-905.71405	195.48232	1690.07825	-737.84308	120.90658	1385.71118	
166	1.650													-1076.29272	1293.79578	1320.04712													-372.86673	1316.20691	1492.26208	-941.73627	1230.19446	1157.40332	-201.68056	1260.28772	1305.37695	-903.53223	969.59247	1275.15588	-627.12366	969.44397	1347.98792							-664.68286	537.17291	1333.66333	-910.11108	201.03838	1681.89990	-737.96216	120.74039	1385.45911	
167	1.660													-1075.84009	1294.51147	1313.21997													-375.63416	1312.14880	1488.51855	-939.58813	1231.19019	1151.42847	-205.50348	1251.26440	1303.46765	-903.72467	969.77319	1269.15356	-626.03674	969.71741	1345.36646	-884.19580	1035.46948	1543.66406				-660.64404	536.20074	1334.61316	-914.52740	207.07846	1673.79150	-738.30847	121.23683	1386.07153	
168	1.670													-1075.40479	1295.54211	1306.39612													-377.80368	1307.80322	1487.47327	-937.86743	1232.24805	1145.50500	-207.54207	1243.83484	1303.94092	-904.34357	970.21545	1263.04028	-626.53577	969.21967	1340.94836	-885.05145	1036.45349	1538.48401				-657.93665	533.54218	1335.11487	-919.24744	213.00481	1664.20605	-738.42401	121.09153	1385.81995	
169	1.680													-1074.70349	1295.91223	1299.63916													-380.56665	1303.06616	1486.06567	-936.29120	1233.45093	1139.59497	-211.00400	1235.97852	1303.51099	-904.48236	970.46283	1257.40955	-625.86066	969.44879	1337.62769	-884.97339	1036.56079	1533.69653				-655.51080	531.49139	1337.31372	-924.27026	218.71326	1655.68982	-738.57135	120.91272	1385.49646	
170	1.690													-1074.47937	1296.94543	1293.06177													-383.03888	1299.43311	1483.91577	-934.22241	1234.45691	1133.81152	-214.61450	1227.30225	1303.34985	-904.91901	971.08771	1251.36169	-625.92950	969.67413	1334.15442	-885.18982	1037.41748	1528.84082				-653.76025	529.42139	1338.51904	-929.18018	224.23718	1645.52893	-738.68280	120.76289	1385.25806	
171	1.700													-1073.91260	1297.25476	1286.46057													-386.36169	1294.64758	1482.94592	-932.69250	1235.46313	1128.11047	-221.43077	1219.62146	1301.75037	-904.89819	971.72083	1245.76172	-625.98334	969.60632	1331.43811	-885.73535	1037.94470	1524.22583				-651.69336	528.36145	1341.29309	-934.41443	228.77002	1635.62170	-738.92120	120.97218	1384.67822	
172	1.710	-736.35260	1345.31567	1273.20764	31.04292	1915.84509	2636.47827							-1073.57349	1298.28918	1279.92651													-389.91269	1290.78979	1480.56287	-931.28247	1236.38525	1122.50891	-226.15887	1211.28174	1301.75476	-904.70428	971.90295	1239.40991	-625.31927	969.57385	1328.01819	-886.21075	1038.70154	1519.52380	-954.81439	514.88647	1289.70190	-650.36713	527.95410	1341.77893	-939.62244	232.80449	1625.05530	-739.10492	120.76299	1384.26868	
